<svg id="SvgjsSvg1006" width="723" height="600" xmlns="http://www.w3.org/2000/svg" version="1.1" xmlns:xlink="http://www.w3.org/1999/xlink" xmlns:svgjs="http://svgjs.com/svgjs"><defs id="SvgjsDefs1007"><marker id="SvgjsMarker1022" markerWidth="16" markerHeight="12" refX="16" refY="6" viewBox="0 0 16 12" orient="auto" markerUnits="userSpaceOnUse" stroke-dasharray="0,0"><path id="SvgjsPath1023" d="M0,2 L14,6 L0,11 L0,2" fill="#323232" stroke="#323232" stroke-width="2"></path></marker><marker id="SvgjsMarker1032" markerWidth="16" markerHeight="12" refX="16" refY="6" viewBox="0 0 16 12" orient="auto" markerUnits="userSpaceOnUse" stroke-dasharray="0,0"><path id="SvgjsPath1033" d="M0,2 L14,6 L0,11 L0,2" fill="#323232" stroke="#323232" stroke-width="2"></path></marker><marker id="SvgjsMarker1040" markerWidth="16" markerHeight="12" refX="16" refY="6" viewBox="0 0 16 12" orient="auto" markerUnits="userSpaceOnUse" stroke-dasharray="0,0"><path id="SvgjsPath1041" d="M0,2 L14,6 L0,11 L0,2" fill="#323232" stroke="#323232" stroke-width="2"></path></marker><marker id="SvgjsMarker1054" markerWidth="16" markerHeight="12" refX="16" refY="6" viewBox="0 0 16 12" orient="auto" markerUnits="userSpaceOnUse" stroke-dasharray="0,0"><path id="SvgjsPath1055" d="M0,2 L14,6 L0,11 L0,2" fill="#323232" stroke="#323232" stroke-width="2"></path></marker><marker id="SvgjsMarker1080" markerWidth="16" markerHeight="12" refX="16" refY="6" viewBox="0 0 16 12" orient="auto" markerUnits="userSpaceOnUse" stroke-dasharray="0,0"><path id="SvgjsPath1081" d="M0,2 L14,6 L0,11 L0,2" fill="#323232" stroke="#323232" stroke-width="2"></path></marker><marker id="SvgjsMarker1084" markerWidth="16" markerHeight="12" refX="16" refY="6" viewBox="0 0 16 12" orient="auto" markerUnits="userSpaceOnUse" stroke-dasharray="0,0"><path id="SvgjsPath1085" d="M0,2 L14,6 L0,11 L0,2" fill="#323232" stroke="#323232" stroke-width="2"></path></marker><marker id="SvgjsMarker1092" markerWidth="16" markerHeight="12" refX="16" refY="6" viewBox="0 0 16 12" orient="auto" markerUnits="userSpaceOnUse" stroke-dasharray="0,0"><path id="SvgjsPath1093" d="M0,2 L14,6 L0,11 L0,2" fill="#323232" stroke="#323232" stroke-width="2"></path></marker><marker id="SvgjsMarker1112" markerWidth="16" markerHeight="12" refX="16" refY="6" viewBox="0 0 16 12" orient="auto" markerUnits="userSpaceOnUse" stroke-dasharray="0,0"><path id="SvgjsPath1113" d="M0,2 L14,6 L0,11 L0,2" fill="#323232" stroke="#323232" stroke-width="2"></path></marker><marker id="SvgjsMarker1116" markerWidth="16" markerHeight="12" refX="16" refY="6" viewBox="0 0 16 12" orient="auto" markerUnits="userSpaceOnUse" stroke-dasharray="0,0"><path id="SvgjsPath1117" d="M0,2 L14,6 L0,11 L0,2" fill="#323232" stroke="#323232" stroke-width="2"></path></marker><marker id="SvgjsMarker1130" markerWidth="16" markerHeight="12" refX="16" refY="6" viewBox="0 0 16 12" orient="auto" markerUnits="userSpaceOnUse" stroke-dasharray="0,0"><path id="SvgjsPath1131" d="M0,2 L14,6 L0,11 L0,2" fill="#323232" stroke="#323232" stroke-width="2"></path></marker><marker id="SvgjsMarker1138" markerWidth="16" markerHeight="12" refX="16" refY="6" viewBox="0 0 16 12" orient="auto" markerUnits="userSpaceOnUse" stroke-dasharray="0,0"><path id="SvgjsPath1139" d="M0,2 L14,6 L0,11 L0,2" fill="#323232" stroke="#323232" stroke-width="2"></path></marker></defs><g id="SvgjsG1008" transform="translate(94,53)"><path id="SvgjsPath1009" d="M 11 0L 117 0C 131.66666666666666 0 131.66666666666666 33 117 33L 11 33C -3.6666666666666665 33 -3.6666666666666665 0 11 0Z" stroke="rgba(50,50,50,1)" stroke-width="2" fill-opacity="1" fill="#ffffff"></path><g id="SvgjsG1010"><text id="SvgjsText1011" font-family="微软雅黑" text-anchor="middle" font-size="16px" width="108px" fill="#323232" font-weight="400" align="middle" lineHeight="125%" anchor="middle" family="微软雅黑" size="16px" weight="400" font-style="" opacity="1" y="4.5" transform="rotate(0)"><tspan id="SvgjsTspan1012" dy="20" x="64"><tspan id="SvgjsTspan1013" style="text-decoration:;">main_loop()</tspan></tspan></text></g></g><g id="SvgjsG1014" transform="translate(55,131)"><path id="SvgjsPath1015" d="M 0 32.5L 103 0L 206 32.5L 103 65L 0 32.5Z" stroke="rgba(50,50,50,1)" stroke-width="2" fill-opacity="1" fill="#ffffff"></path><g id="SvgjsG1016"><text id="SvgjsText1017" font-family="微软雅黑" text-anchor="middle" font-size="16px" width="186px" fill="#323232" font-weight="400" align="middle" lineHeight="125%" anchor="middle" family="微软雅黑" size="16px" weight="400" font-style="" opacity="1" y="20.5" transform="rotate(0)"><tspan id="SvgjsTspan1018" dy="20" x="103"><tspan id="SvgjsTspan1019" style="text-decoration:;">record template?</tspan></tspan></text></g></g><g id="SvgjsG1020"><path id="SvgjsPath1021" d="M158 86L158 108.5L158 108.5L158 131" stroke="#323232" stroke-width="2" fill="none" marker-end="url(#SvgjsMarker1022)"></path></g><g id="SvgjsG1024" transform="translate(61,263)"><path id="SvgjsPath1025" d="M 0 0L 194 0L 194 43L 0 43Z" stroke="rgba(50,50,50,1)" stroke-width="2" fill-opacity="1" fill="#ffffff"></path><g id="SvgjsG1026"><text id="SvgjsText1027" font-family="微软雅黑" text-anchor="middle" font-size="16px" width="174px" fill="#323232" font-weight="400" align="middle" lineHeight="125%" anchor="middle" family="微软雅黑" size="16px" weight="400" font-style="" opacity="1" y="9.5" transform="rotate(0)"><tspan id="SvgjsTspan1028" dy="20" x="97"><tspan id="SvgjsTspan1029" style="text-decoration:;">task_listen()</tspan></tspan></text></g></g><g id="SvgjsG1030"><path id="SvgjsPath1031" d="M158 196L158 229.5L158 229.5L158 263" stroke="#323232" stroke-width="2" fill="none" marker-end="url(#SvgjsMarker1032)"></path><rect id="SvgjsRect1034" width="12" height="20" x="152" y="219.5" fill="#ffffff"></rect><text id="SvgjsText1035" font-family="微软雅黑" text-anchor="middle" font-size="16px" width="12px" fill="#323232" font-weight="400" align="top" lineHeight="20px" anchor="middle" family="微软雅黑" size="16px" weight="400" font-style="" opacity="1" y="217.5" transform="rotate(0)"><tspan id="SvgjsTspan1036" dy="20" x="158"><tspan id="SvgjsTspan1037" style="text-decoration:;">N</tspan></tspan></text></g><g id="SvgjsG1038"><path id="SvgjsPath1039" d="M261 163.5L309 163.5L309 163.5L357 163.5" stroke="#323232" stroke-width="2" fill="none" marker-end="url(#SvgjsMarker1040)"></path><rect id="SvgjsRect1042" width="11" height="20" x="303.5" y="153.5" fill="#ffffff"></rect><text id="SvgjsText1043" font-family="微软雅黑" text-anchor="middle" font-size="16px" width="11px" fill="#323232" font-weight="400" align="top" lineHeight="20px" anchor="middle" family="微软雅黑" size="16px" weight="400" font-style="" opacity="1" y="151.5" transform="rotate(0)"><tspan id="SvgjsTspan1044" dy="20" x="309"><tspan id="SvgjsTspan1045" style="text-decoration:;">Y</tspan></tspan></text></g><g id="SvgjsG1046" transform="translate(357,141.625)"><path id="SvgjsPath1047" d="M 0 0L 142 0L 142 43.75L 0 43.75Z" stroke="rgba(50,50,50,1)" stroke-width="2" fill-opacity="1" fill="#ffffff"></path><g id="SvgjsG1048"><text id="SvgjsText1049" font-family="微软雅黑" text-anchor="middle" font-size="16px" width="122px" fill="#323232" font-weight="400" align="middle" lineHeight="125%" anchor="middle" family="微软雅黑" size="16px" weight="400" font-style="" opacity="1" y="9.875" transform="rotate(0)"><tspan id="SvgjsTspan1050" dy="20" x="71"><tspan id="SvgjsTspan1051" style="text-decoration:;">task_record()</tspan></tspan></text></g></g><g id="SvgjsG1052"><path id="SvgjsPath1053" d="M428 185.375L428 273L255 273" stroke="#323232" stroke-width="2" fill="none" marker-end="url(#SvgjsMarker1054)"></path></g><g id="SvgjsG1056" transform="translate(238,25)"><path id="SvgjsPath1057" d="M 0 0L 444 0L 460 16L 460 95L 0 95L 0 0Z" stroke="none" fill-opacity="1" fill="#ffffaa"></path><path id="SvgjsPath1058" d="M 444 0L 444 16L 460 16Z" stroke="none" fill-opacity="1" fill="#cdcdcd"></path><path id="SvgjsPath1059" d="M 0 0L 444 0L 460 16L 460 95L 0 95L 0 0Z" stroke="none" fill="none"></path><g id="SvgjsG1060"><text id="SvgjsText1061" font-family="微软雅黑" text-anchor="middle" font-size="16px" width="440px" fill="#323232" font-weight="400" align="middle" lineHeight="125%" anchor="middle" family="微软雅黑" size="16px" weight="400" font-style="" opacity="1" y="5.5" transform="rotate(0)"><tspan id="SvgjsTspan1062" dy="20" x="230"><tspan id="SvgjsTspan1063" style="text-decoration:;">Though you can choose to record multiple audio files, the </tspan></tspan><tspan id="SvgjsTspan1064" dy="20" x="230"><tspan id="SvgjsTspan1065" style="text-decoration:;">program now will always use the first one you just </tspan></tspan><tspan id="SvgjsTspan1066" dy="20" x="230"><tspan id="SvgjsTspan1067" style="text-decoration:;">recorded. So it's the same if you choose to recording only </tspan></tspan><tspan id="SvgjsTspan1068" dy="20" x="230"><tspan id="SvgjsTspan1069" style="text-decoration:;">one template. But anyway you can keep multiple files.</tspan></tspan></text></g></g><g id="SvgjsG1070"><path id="SvgjsPath1071" d="M428 141.625L468 120" stroke-dasharray="8,5" stroke="#323232" stroke-width="2" fill="none"></path></g><g id="SvgjsG1072" transform="translate(55,353)"><path id="SvgjsPath1073" d="M 0 32.5L 103 0L 206 32.5L 103 65L 0 32.5Z" stroke="rgba(50,50,50,1)" stroke-width="2" fill-opacity="1" fill="#ffffff"></path><g id="SvgjsG1074"><text id="SvgjsText1075" font-family="微软雅黑" text-anchor="middle" font-size="16px" width="186px" fill="#323232" font-weight="400" align="middle" lineHeight="125%" anchor="middle" family="微软雅黑" size="16px" weight="400" font-style="" opacity="1" y="20.5" transform="rotate(0)"><tspan id="SvgjsTspan1076" dy="20" x="103"><tspan id="SvgjsTspan1077" style="text-decoration:;">wake up?</tspan></tspan></text></g></g><g id="SvgjsG1078"><path id="SvgjsPath1079" d="M158 306L158 329.5L158 329.5L158 353" stroke="#323232" stroke-width="2" fill="none" marker-end="url(#SvgjsMarker1080)"></path></g><g id="SvgjsG1082"><path id="SvgjsPath1083" d="M55 385.5L25 385.5L25 284.5L61 284.5" stroke="#323232" stroke-width="2" fill="none" marker-end="url(#SvgjsMarker1084)"></path><rect id="SvgjsRect1086" width="12" height="20" x="19" y="322" fill="#ffffff"></rect><text id="SvgjsText1087" font-family="微软雅黑" text-anchor="middle" font-size="16px" width="12px" fill="#323232" font-weight="400" align="top" lineHeight="20px" anchor="middle" family="微软雅黑" size="16px" weight="400" font-style="" opacity="1" y="320" transform="rotate(0)"><tspan id="SvgjsTspan1088" dy="20" x="25"><tspan id="SvgjsTspan1089" style="text-decoration:;">N</tspan></tspan></text></g><g id="SvgjsG1090"><path id="SvgjsPath1091" d="M158 418L158 450L158 450L158 482" stroke="#323232" stroke-width="2" fill="none" marker-end="url(#SvgjsMarker1092)"></path><rect id="SvgjsRect1094" width="11" height="20" x="152.5" y="440" fill="#ffffff"></rect><text id="SvgjsText1095" font-family="微软雅黑" text-anchor="middle" font-size="16px" width="11px" fill="#323232" font-weight="400" align="top" lineHeight="20px" anchor="middle" family="微软雅黑" size="16px" weight="400" font-style="" opacity="1" y="438" transform="rotate(0)"><tspan id="SvgjsTspan1096" dy="20" x="158"><tspan id="SvgjsTspan1097" style="text-decoration:;">Y</tspan></tspan></text></g><g id="SvgjsG1098" transform="translate(73.75,482)"><path id="SvgjsPath1099" d="M 0 0L 168.5 0L 168.5 45L 0 45Z" stroke="rgba(50,50,50,1)" stroke-width="2" fill-opacity="1" fill="#ffffff"></path><g id="SvgjsG1100"><text id="SvgjsText1101" font-family="微软雅黑" text-anchor="middle" font-size="16px" width="149px" fill="#323232" font-weight="400" align="middle" lineHeight="125%" anchor="middle" family="微软雅黑" size="16px" weight="400" font-style="" opacity="1" y="10.5" transform="rotate(0)"><tspan id="SvgjsTspan1102" dy="20" x="84.5"><tspan id="SvgjsTspan1103" style="text-decoration:;">task_action()</tspan></tspan></text></g></g><g id="SvgjsG1104" transform="translate(325,472)"><path id="SvgjsPath1105" d="M 0 32.5L 103 0L 206 32.5L 103 65L 0 32.5Z" stroke="rgba(50,50,50,1)" stroke-width="2" fill-opacity="1" fill="#ffffff"></path><g id="SvgjsG1106"><text id="SvgjsText1107" font-family="微软雅黑" text-anchor="middle" font-size="16px" width="186px" fill="#323232" font-weight="400" align="middle" lineHeight="125%" anchor="middle" family="微软雅黑" size="16px" weight="400" font-style="" opacity="1" y="20.5" transform="rotate(0)"><tspan id="SvgjsTspan1108" dy="20" x="103"><tspan id="SvgjsTspan1109" style="text-decoration:;">valid command?</tspan></tspan></text></g></g><g id="SvgjsG1110"><path id="SvgjsPath1111" d="M158 527L158 567L428 567L428 537" stroke="#323232" stroke-width="2" fill="none" marker-end="url(#SvgjsMarker1112)"></path></g><g id="SvgjsG1114"><path id="SvgjsPath1115" d="M325 504.5L283.625 504.5L283.625 504.5L242.25 504.5" stroke="#323232" stroke-width="2" fill="none" marker-end="url(#SvgjsMarker1116)"></path><rect id="SvgjsRect1118" width="12" height="20" x="277.625" y="494.5" fill="#ffffff"></rect><text id="SvgjsText1119" font-family="微软雅黑" text-anchor="middle" font-size="16px" width="12px" fill="#323232" font-weight="400" align="top" lineHeight="20px" anchor="middle" family="微软雅黑" size="16px" weight="400" font-style="" opacity="1" y="492.5" transform="rotate(0)"><tspan id="SvgjsTspan1120" dy="20" x="283.625"><tspan id="SvgjsTspan1121" style="text-decoration:;">N</tspan></tspan></text></g><g id="SvgjsG1122" transform="translate(357,363.625)"><path id="SvgjsPath1123" d="M 0 0L 142 0L 142 43.75L 0 43.75Z" stroke="rgba(50,50,50,1)" stroke-width="2" fill-opacity="1" fill="#ffffff"></path><g id="SvgjsG1124"><text id="SvgjsText1125" font-family="微软雅黑" text-anchor="middle" font-size="16px" width="122px" fill="#323232" font-weight="400" align="middle" lineHeight="125%" anchor="middle" family="微软雅黑" size="16px" weight="400" font-style="" opacity="1" y="9.875" transform="rotate(0)"><tspan id="SvgjsTspan1126" dy="20" x="71"><tspan id="SvgjsTspan1127" style="text-decoration:;">execute()</tspan></tspan></text></g></g><g id="SvgjsG1128"><path id="SvgjsPath1129" d="M428 472L428 439.6875L428 439.6875L428 407.375" stroke="#323232" stroke-width="2" fill="none" marker-end="url(#SvgjsMarker1130)"></path><rect id="SvgjsRect1132" width="11" height="20" x="422.5" y="429.6875" fill="#ffffff"></rect><text id="SvgjsText1133" font-family="微软雅黑" text-anchor="middle" font-size="16px" width="11px" fill="#323232" font-weight="400" align="top" lineHeight="20px" anchor="middle" family="微软雅黑" size="16px" weight="400" font-style="" opacity="1" y="427.6875" transform="rotate(0)"><tspan id="SvgjsTspan1134" dy="20" x="428"><tspan id="SvgjsTspan1135" style="text-decoration:;">Y</tspan></tspan></text></g><g id="SvgjsG1136"><path id="SvgjsPath1137" d="M428 363.625L428 293L255 293" stroke="#323232" stroke-width="2" fill="none" marker-end="url(#SvgjsMarker1138)"></path></g><g id="SvgjsG1140" transform="translate(531,263)"><path id="SvgjsPath1141" d="M 0 312Q 9 312 9 303L 9 165Q 9 156 22 156Q 9 156 9 147L 9 9Q 9 0 0 0" stroke="rgba(50,50,50,1)" stroke-width="2" fill="none"></path><path id="SvgjsPath1142" d="M 0 0L 158 0L 158 312L 0 312Z" stroke="none" fill="none"></path><g id="SvgjsG1143"><text id="SvgjsText1144" font-family="微软雅黑" text-anchor="start" font-size="30px" width="131px" fill="#323232" font-weight="700" align="middle" lineHeight="125%" anchor="start" family="微软雅黑" size="30px" weight="700" font-style="" opacity="1" y="131.75" transform="rotate(0)"><tspan id="SvgjsTspan1145" dy="37" x="27"><tspan id="SvgjsTspan1146" style="text-decoration:;">Loop</tspan></tspan></text></g></g></svg>