<svg id="SvgjsSvg1429" width="723" height="600" xmlns="http://www.w3.org/2000/svg" version="1.1" xmlns:xlink="http://www.w3.org/1999/xlink" xmlns:svgjs="http://svgjs.com/svgjs"><defs id="SvgjsDefs1430"><marker id="SvgjsMarker1445" markerWidth="16" markerHeight="12" refX="16" refY="6" viewBox="0 0 16 12" orient="auto" markerUnits="userSpaceOnUse" stroke-dasharray="0,0"><path id="SvgjsPath1446" d="M0,2 L14,6 L0,11 L0,2" fill="#323232" stroke="#323232" stroke-width="2"></path></marker><marker id="SvgjsMarker1455" markerWidth="16" markerHeight="12" refX="16" refY="6" viewBox="0 0 16 12" orient="auto" markerUnits="userSpaceOnUse" stroke-dasharray="0,0"><path id="SvgjsPath1456" d="M0,2 L14,6 L0,11 L0,2" fill="#323232" stroke="#323232" stroke-width="2"></path></marker><marker id="SvgjsMarker1463" markerWidth="16" markerHeight="12" refX="16" refY="6" viewBox="0 0 16 12" orient="auto" markerUnits="userSpaceOnUse" stroke-dasharray="0,0"><path id="SvgjsPath1464" d="M0,2 L14,6 L0,11 L0,2" fill="#323232" stroke="#323232" stroke-width="2"></path></marker><marker id="SvgjsMarker1477" markerWidth="16" markerHeight="12" refX="16" refY="6" viewBox="0 0 16 12" orient="auto" markerUnits="userSpaceOnUse" stroke-dasharray="0,0"><path id="SvgjsPath1478" d="M0,2 L14,6 L0,11 L0,2" fill="#323232" stroke="#323232" stroke-width="2"></path></marker><marker id="SvgjsMarker1503" markerWidth="16" markerHeight="12" refX="16" refY="6" viewBox="0 0 16 12" orient="auto" markerUnits="userSpaceOnUse" stroke-dasharray="0,0"><path id="SvgjsPath1504" d="M0,2 L14,6 L0,11 L0,2" fill="#323232" stroke="#323232" stroke-width="2"></path></marker><marker id="SvgjsMarker1507" markerWidth="16" markerHeight="12" refX="16" refY="6" viewBox="0 0 16 12" orient="auto" markerUnits="userSpaceOnUse" stroke-dasharray="0,0"><path id="SvgjsPath1508" d="M0,2 L14,6 L0,11 L0,2" fill="#323232" stroke="#323232" stroke-width="2"></path></marker><marker id="SvgjsMarker1515" markerWidth="16" markerHeight="12" refX="16" refY="6" viewBox="0 0 16 12" orient="auto" markerUnits="userSpaceOnUse" stroke-dasharray="0,0"><path id="SvgjsPath1516" d="M0,2 L14,6 L0,11 L0,2" fill="#323232" stroke="#323232" stroke-width="2"></path></marker><marker id="SvgjsMarker1535" markerWidth="16" markerHeight="12" refX="16" refY="6" viewBox="0 0 16 12" orient="auto" markerUnits="userSpaceOnUse" stroke-dasharray="0,0"><path id="SvgjsPath1536" d="M0,2 L14,6 L0,11 L0,2" fill="#323232" stroke="#323232" stroke-width="2"></path></marker><marker id="SvgjsMarker1539" markerWidth="16" markerHeight="12" refX="16" refY="6" viewBox="0 0 16 12" orient="auto" markerUnits="userSpaceOnUse" stroke-dasharray="0,0"><path id="SvgjsPath1540" d="M0,2 L14,6 L0,11 L0,2" fill="#323232" stroke="#323232" stroke-width="2"></path></marker><marker id="SvgjsMarker1553" markerWidth="16" markerHeight="12" refX="16" refY="6" viewBox="0 0 16 12" orient="auto" markerUnits="userSpaceOnUse" stroke-dasharray="0,0"><path id="SvgjsPath1554" d="M0,2 L14,6 L0,11 L0,2" fill="#323232" stroke="#323232" stroke-width="2"></path></marker><marker id="SvgjsMarker1561" markerWidth="16" markerHeight="12" refX="16" refY="6" viewBox="0 0 16 12" orient="auto" markerUnits="userSpaceOnUse" stroke-dasharray="0,0"><path id="SvgjsPath1562" d="M0,2 L14,6 L0,11 L0,2" fill="#323232" stroke="#323232" stroke-width="2"></path></marker></defs><g id="SvgjsG1431" transform="translate(94,53)"><path id="SvgjsPath1432" d="M 11 0L 117 0C 131.66666666666666 0 131.66666666666666 33 117 33L 11 33C -3.6666666666666665 33 -3.6666666666666665 0 11 0Z" stroke="rgba(50,50,50,1)" stroke-width="2" fill-opacity="1" fill="#ffffff"></path><g id="SvgjsG1433"><text id="SvgjsText1434" font-family="微软雅黑" text-anchor="middle" font-size="16px" width="108px" fill="#323232" font-weight="400" align="middle" lineHeight="125%" anchor="middle" family="微软雅黑" size="16px" weight="400" font-style="" opacity="1" y="4.5" transform="rotate(0)"><tspan id="SvgjsTspan1435" dy="20" x="64"><tspan id="SvgjsTspan1436" style="text-decoration:;">main_loop()</tspan></tspan></text></g></g><g id="SvgjsG1437" transform="translate(55,131)"><path id="SvgjsPath1438" d="M 0 32.5L 103 0L 206 32.5L 103 65L 0 32.5Z" stroke="rgba(50,50,50,1)" stroke-width="2" fill-opacity="1" fill="#ffffff"></path><g id="SvgjsG1439"><text id="SvgjsText1440" font-family="微软雅黑" text-anchor="middle" font-size="16px" width="186px" fill="#323232" font-weight="400" align="middle" lineHeight="125%" anchor="middle" family="微软雅黑" size="16px" weight="400" font-style="" opacity="1" y="20.5" transform="rotate(0)"><tspan id="SvgjsTspan1441" dy="20" x="103"><tspan id="SvgjsTspan1442" style="text-decoration:;">record template?</tspan></tspan></text></g></g><g id="SvgjsG1443"><path id="SvgjsPath1444" d="M158 86L158 108.5L158 108.5L158 131" stroke="#323232" stroke-width="2" fill="none" marker-end="url(#SvgjsMarker1445)"></path></g><g id="SvgjsG1447" transform="translate(61,263)"><path id="SvgjsPath1448" d="M 0 0L 194 0L 194 43L 0 43Z" stroke="rgba(50,50,50,1)" stroke-width="2" fill-opacity="1" fill="#ffffff"></path><g id="SvgjsG1449"><text id="SvgjsText1450" font-family="微软雅黑" text-anchor="middle" font-size="16px" width="174px" fill="#323232" font-weight="400" align="middle" lineHeight="125%" anchor="middle" family="微软雅黑" size="16px" weight="400" font-style="" opacity="1" y="9.5" transform="rotate(0)"><tspan id="SvgjsTspan1451" dy="20" x="97"><tspan id="SvgjsTspan1452" style="text-decoration:;">task_listen()</tspan></tspan></text></g></g><g id="SvgjsG1453"><path id="SvgjsPath1454" d="M158 196L158 229.5L158 229.5L158 263" stroke="#323232" stroke-width="2" fill="none" marker-end="url(#SvgjsMarker1455)"></path><rect id="SvgjsRect1457" width="12" height="20" x="152" y="219.5" fill="#ffffff"></rect><text id="SvgjsText1458" font-family="微软雅黑" text-anchor="middle" font-size="16px" width="12px" fill="#323232" font-weight="400" align="top" lineHeight="20px" anchor="middle" family="微软雅黑" size="16px" weight="400" font-style="" opacity="1" y="217.5" transform="rotate(0)"><tspan id="SvgjsTspan1459" dy="20" x="158"><tspan id="SvgjsTspan1460" style="text-decoration:;">N</tspan></tspan></text></g><g id="SvgjsG1461"><path id="SvgjsPath1462" d="M261 163.5L309 163.5L309 163.5L357 163.5" stroke="#323232" stroke-width="2" fill="none" marker-end="url(#SvgjsMarker1463)"></path><rect id="SvgjsRect1465" width="11" height="20" x="303.5" y="153.5" fill="#ffffff"></rect><text id="SvgjsText1466" font-family="微软雅黑" text-anchor="middle" font-size="16px" width="11px" fill="#323232" font-weight="400" align="top" lineHeight="20px" anchor="middle" family="微软雅黑" size="16px" weight="400" font-style="" opacity="1" y="151.5" transform="rotate(0)"><tspan id="SvgjsTspan1467" dy="20" x="309"><tspan id="SvgjsTspan1468" style="text-decoration:;">Y</tspan></tspan></text></g><g id="SvgjsG1469" transform="translate(357,141.625)"><path id="SvgjsPath1470" d="M 0 0L 142 0L 142 43.75L 0 43.75Z" stroke="rgba(50,50,50,1)" stroke-width="2" fill-opacity="1" fill="#ffffff"></path><g id="SvgjsG1471"><text id="SvgjsText1472" font-family="微软雅黑" text-anchor="middle" font-size="16px" width="122px" fill="#323232" font-weight="400" align="middle" lineHeight="125%" anchor="middle" family="微软雅黑" size="16px" weight="400" font-style="" opacity="1" y="9.875" transform="rotate(0)"><tspan id="SvgjsTspan1473" dy="20" x="71"><tspan id="SvgjsTspan1474" style="text-decoration:;">task_record()</tspan></tspan></text></g></g><g id="SvgjsG1475"><path id="SvgjsPath1476" d="M428 185.375L428 273L255 273" stroke="#323232" stroke-width="2" fill="none" marker-end="url(#SvgjsMarker1477)"></path></g><g id="SvgjsG1479" transform="translate(238,25)"><path id="SvgjsPath1480" d="M 0 0L 444 0L 460 16L 460 95L 0 95L 0 0Z" stroke="none" fill-opacity="1" fill="#ffffaa"></path><path id="SvgjsPath1481" d="M 444 0L 444 16L 460 16Z" stroke="none" fill-opacity="1" fill="#cdcdcd"></path><path id="SvgjsPath1482" d="M 0 0L 444 0L 460 16L 460 95L 0 95L 0 0Z" stroke="none" fill="none"></path><g id="SvgjsG1483"><text id="SvgjsText1484" font-family="微软雅黑" text-anchor="middle" font-size="16px" width="440px" fill="#323232" font-weight="400" align="middle" lineHeight="125%" anchor="middle" family="微软雅黑" size="16px" weight="400" font-style="" opacity="1" y="5.5" transform="rotate(0)"><tspan id="SvgjsTspan1485" dy="20" x="230"><tspan id="SvgjsTspan1486" style="text-decoration:;">Though you can choose to record multiple audio files, the </tspan></tspan><tspan id="SvgjsTspan1487" dy="20" x="230"><tspan id="SvgjsTspan1488" style="text-decoration:;">program now will always use the first one you just </tspan></tspan><tspan id="SvgjsTspan1489" dy="20" x="230"><tspan id="SvgjsTspan1490" style="text-decoration:;">recorded. So it's the same if you choose to recording only </tspan></tspan><tspan id="SvgjsTspan1491" dy="20" x="230"><tspan id="SvgjsTspan1492" style="text-decoration:;">one template. But anyway you can keep multiple files.</tspan></tspan></text></g></g><g id="SvgjsG1493"><path id="SvgjsPath1494" d="M428 141.625L468 120" stroke-dasharray="8,5" stroke="#323232" stroke-width="2" fill="none"></path></g><g id="SvgjsG1495" transform="translate(55,353)"><path id="SvgjsPath1496" d="M 0 32.5L 103 0L 206 32.5L 103 65L 0 32.5Z" stroke="rgba(50,50,50,1)" stroke-width="2" fill-opacity="1" fill="#ffffff"></path><g id="SvgjsG1497"><text id="SvgjsText1498" font-family="微软雅黑" text-anchor="middle" font-size="16px" width="186px" fill="#323232" font-weight="400" align="middle" lineHeight="125%" anchor="middle" family="微软雅黑" size="16px" weight="400" font-style="" opacity="1" y="20.5" transform="rotate(0)"><tspan id="SvgjsTspan1499" dy="20" x="103"><tspan id="SvgjsTspan1500" style="text-decoration:;">wake up?</tspan></tspan></text></g></g><g id="SvgjsG1501"><path id="SvgjsPath1502" d="M158 306L158 329.5L158 329.5L158 353" stroke="#323232" stroke-width="2" fill="none" marker-end="url(#SvgjsMarker1503)"></path></g><g id="SvgjsG1505"><path id="SvgjsPath1506" d="M55 385.5L25 385.5L25 284.5L61 284.5" stroke="#323232" stroke-width="2" fill="none" marker-end="url(#SvgjsMarker1507)"></path><rect id="SvgjsRect1509" width="12" height="20" x="19" y="322" fill="#ffffff"></rect><text id="SvgjsText1510" font-family="微软雅黑" text-anchor="middle" font-size="16px" width="12px" fill="#323232" font-weight="400" align="top" lineHeight="20px" anchor="middle" family="微软雅黑" size="16px" weight="400" font-style="" opacity="1" y="320" transform="rotate(0)"><tspan id="SvgjsTspan1511" dy="20" x="25"><tspan id="SvgjsTspan1512" style="text-decoration:;">N</tspan></tspan></text></g><g id="SvgjsG1513"><path id="SvgjsPath1514" d="M158 418L158 450L158 450L158 482" stroke="#323232" stroke-width="2" fill="none" marker-end="url(#SvgjsMarker1515)"></path><rect id="SvgjsRect1517" width="11" height="20" x="152.5" y="440" fill="#ffffff"></rect><text id="SvgjsText1518" font-family="微软雅黑" text-anchor="middle" font-size="16px" width="11px" fill="#323232" font-weight="400" align="top" lineHeight="20px" anchor="middle" family="微软雅黑" size="16px" weight="400" font-style="" opacity="1" y="438" transform="rotate(0)"><tspan id="SvgjsTspan1519" dy="20" x="158"><tspan id="SvgjsTspan1520" style="text-decoration:;">Y</tspan></tspan></text></g><g id="SvgjsG1521" transform="translate(73.75,482)"><path id="SvgjsPath1522" d="M 0 0L 168.5 0L 168.5 45L 0 45Z" stroke="rgba(50,50,50,1)" stroke-width="2" fill-opacity="1" fill="#ffffff"></path><g id="SvgjsG1523"><text id="SvgjsText1524" font-family="微软雅黑" text-anchor="middle" font-size="16px" width="149px" fill="#323232" font-weight="400" align="middle" lineHeight="125%" anchor="middle" family="微软雅黑" size="16px" weight="400" font-style="" opacity="1" y="10.5" transform="rotate(0)"><tspan id="SvgjsTspan1525" dy="20" x="84.5"><tspan id="SvgjsTspan1526" style="text-decoration:;">action_listen()</tspan></tspan></text></g></g><g id="SvgjsG1527" transform="translate(325,472)"><path id="SvgjsPath1528" d="M 0 32.5L 103 0L 206 32.5L 103 65L 0 32.5Z" stroke="rgba(50,50,50,1)" stroke-width="2" fill-opacity="1" fill="#ffffff"></path><g id="SvgjsG1529"><text id="SvgjsText1530" font-family="微软雅黑" text-anchor="middle" font-size="16px" width="186px" fill="#323232" font-weight="400" align="middle" lineHeight="125%" anchor="middle" family="微软雅黑" size="16px" weight="400" font-style="" opacity="1" y="20.5" transform="rotate(0)"><tspan id="SvgjsTspan1531" dy="20" x="103"><tspan id="SvgjsTspan1532" style="text-decoration:;">valid command?</tspan></tspan></text></g></g><g id="SvgjsG1533"><path id="SvgjsPath1534" d="M158 527L158 567L428 567L428 537" stroke="#323232" stroke-width="2" fill="none" marker-end="url(#SvgjsMarker1535)"></path></g><g id="SvgjsG1537"><path id="SvgjsPath1538" d="M325 504.5L283.625 504.5L283.625 504.5L242.25 504.5" stroke="#323232" stroke-width="2" fill="none" marker-end="url(#SvgjsMarker1539)"></path><rect id="SvgjsRect1541" width="12" height="20" x="277.625" y="494.5" fill="#ffffff"></rect><text id="SvgjsText1542" font-family="微软雅黑" text-anchor="middle" font-size="16px" width="12px" fill="#323232" font-weight="400" align="top" lineHeight="20px" anchor="middle" family="微软雅黑" size="16px" weight="400" font-style="" opacity="1" y="492.5" transform="rotate(0)"><tspan id="SvgjsTspan1543" dy="20" x="283.625"><tspan id="SvgjsTspan1544" style="text-decoration:;">N</tspan></tspan></text></g><g id="SvgjsG1545" transform="translate(357,363.625)"><path id="SvgjsPath1546" d="M 0 0L 142 0L 142 43.75L 0 43.75Z" stroke="rgba(50,50,50,1)" stroke-width="2" fill-opacity="1" fill="#ffffff"></path><g id="SvgjsG1547"><text id="SvgjsText1548" font-family="微软雅黑" text-anchor="middle" font-size="16px" width="122px" fill="#323232" font-weight="400" align="middle" lineHeight="125%" anchor="middle" family="微软雅黑" size="16px" weight="400" font-style="" opacity="1" y="9.875" transform="rotate(0)"><tspan id="SvgjsTspan1549" dy="20" x="71"><tspan id="SvgjsTspan1550" style="text-decoration:;">execute()</tspan></tspan></text></g></g><g id="SvgjsG1551"><path id="SvgjsPath1552" d="M428 472L428 439.6875L428 439.6875L428 407.375" stroke="#323232" stroke-width="2" fill="none" marker-end="url(#SvgjsMarker1553)"></path><rect id="SvgjsRect1555" width="11" height="20" x="422.5" y="429.6875" fill="#ffffff"></rect><text id="SvgjsText1556" font-family="微软雅黑" text-anchor="middle" font-size="16px" width="11px" fill="#323232" font-weight="400" align="top" lineHeight="20px" anchor="middle" family="微软雅黑" size="16px" weight="400" font-style="" opacity="1" y="427.6875" transform="rotate(0)"><tspan id="SvgjsTspan1557" dy="20" x="428"><tspan id="SvgjsTspan1558" style="text-decoration:;">Y</tspan></tspan></text></g><g id="SvgjsG1559"><path id="SvgjsPath1560" d="M428 363.625L428 293L255 293" stroke="#323232" stroke-width="2" fill="none" marker-end="url(#SvgjsMarker1561)"></path></g><g id="SvgjsG1563" transform="translate(531,263)"><path id="SvgjsPath1564" d="M 0 312Q 9 312 9 303L 9 165Q 9 156 22 156Q 9 156 9 147L 9 9Q 9 0 0 0" stroke="rgba(50,50,50,1)" stroke-width="2" fill="none"></path><path id="SvgjsPath1565" d="M 0 0L 158 0L 158 312L 0 312Z" stroke="none" fill="none"></path><g id="SvgjsG1566"><text id="SvgjsText1567" font-family="微软雅黑" text-anchor="start" font-size="30px" width="131px" fill="#323232" font-weight="700" align="middle" lineHeight="125%" anchor="start" family="微软雅黑" size="30px" weight="700" font-style="" opacity="1" y="131.75" transform="rotate(0)"><tspan id="SvgjsTspan1568" dy="37" x="27"><tspan id="SvgjsTspan1569" style="text-decoration:;">Loop</tspan></tspan></text></g></g></svg>